<?xml version="1.0" standalone="no"?>
<!DOCTYPE svg PUBLIC "-//W3C//DTD SVG 20010904//EN"
 "http://www.w3.org/TR/2001/REC-SVG-20010904/DTD/svg10.dtd">
<svg version="1.0" xmlns="http://www.w3.org/2000/svg"
 width="200.000000pt" height="200.000000pt" viewBox="0 0 200.000000 200.000000"
 preserveAspectRatio="xMidYMid meet">
<metadata>
Created by potrace 1.11, written by Peter Selinger 2001-2013
</metadata>
<g transform="translate(0.000000,200.000000) scale(0.100000,-0.100000)"
fill="#000000" stroke="none">
<path d="M850 1904 c-721 -120 -1017 -1000 -516 -1532 181 -192 425 -293 691
-286 331 8 626 191 784 486 280 521 -13 1174 -591 1317 -104 26 -263 33 -368
15z m295 -169 c282 -59 506 -268 581 -545 25 -90 25 -290 0 -380 -139 -500
-720 -719 -1145 -431 -390 265 -443 817 -111 1149 113 113 256 186 420 215 58
10 186 6 255 -8z"/>
<path d="M996 1483 c-3 -16 -8 -46 -11 -68 -3 -22 -8 -53 -11 -70 -3 -16 -36
-211 -73 -432 -66 -393 -67 -403 -47 -403 12 0 49 -6 84 -14 43 -9 62 -9 62
-2 0 6 7 47 15 91 7 44 16 96 20 115 3 19 8 46 10 60 3 14 8 43 10 65 5 34 22
142 41 250 3 17 20 116 38 221 l32 191 -68 11 c-93 16 -96 16 -102 -15z"/>
<path d="M495 1196 l-197 -196 197 -196 196 -197 60 59 59 59 -137 137 -138
138 138 138 137 137 -59 59 -59 58 -197 -196z"/>
<path d="M1252 1337 c-29 -29 -52 -57 -52 -62 0 -5 60 -69 132 -142 l133 -133
-138 -138 -137 -138 60 -58 60 -58 196 196 197 196 -196 195 c-108 107 -198
195 -200 195 -1 0 -26 -24 -55 -53z"/>
</g>
</svg>
